<svg xmlns="http://www.w3.org/2000/svg" viewBox="0 0 397.71 407.32"><defs><style>.cls-1{fill:#fff;}.cls-2{fill:#ea5d5c;}.cls-3{fill:#ede15a;}.cls-4{fill:#b4ae34;}.cls-5{fill:#c94446;}.cls-6{fill:#2a00ff;}.cls-7{fill:#272c3e;}</style></defs><title>Asset 13</title><g id="Layer_2" data-name="Layer 2"><g id="Layer_1-2" data-name="Layer 1"><polygon class="cls-1" points="397.71 407.32 203.71 356.32 0 407.32 0 0 397.71 0 397.71 407.32"/><g id="JS-Conf-V2"><g id="Menu-Fixed"><g id="menu-fixed-2" data-name="menu-fixed"><g id="Logo-JsConf"><g id="JsConf-Iso"><polygon id="Cuerpo" class="cls-2" points="151.23 231.32 197.3 146.4 237.25 153.05 247.56 165.42 151.23 231.32"/><polygon id="Ala-derecha" class="cls-3" points="212.74 148.6 137.9 97.79 107.01 115.85 155.31 188.38 212.74 188.8 212.74 148.6"/><polygon id="Sombra-ala-derecha" class="cls-4" points="138.15 97.79 56.65 145.07 96 98.36 138.15 97.79"/><polygon id="Ala-izquierda" class="cls-3" points="245.28 82.63 237.12 152.96 212.79 148.93 201.75 141.28 245.28 82.63"/><polygon id="Sombra-ala-iz" class="cls-4" points="245.33 82.78 269.91 121.43 242.14 109.24 245.33 82.78"/><polygon id="Cabeza" class="cls-5" points="237.04 153.1 259.54 156.3 259.54 180.03 237.04 153.1"/><polygon id="Cola" class="cls-6" points="151.89 230.61 115.41 295.81 184.59 248.76 178.51 212.6 151.89 230.61"/><polygon id="Pico" class="cls-2" points="259.47 179.85 247.85 182.16 254.58 173.9 259.47 179.85"/></g></g></g></g></g><g id="JS-Conf-V2-2" data-name="JS-Conf-V2"><g id="Speakers"><g id="Logo-JsConf-2" data-name="Logo-JsConf"><g id="JsConf_Letras" data-name="JsConf Letras"><path id="JSConf" class="cls-7" d="M220.09,207.29v16.16a11.3,11.3,0,0,1-.41,4,2.49,2.49,0,0,1-2.51,1.68,3.86,3.86,0,0,1-2.62-.9l-1.87,3.22a8,8,0,0,0,4.42,1.27,6.22,6.22,0,0,0,5.87-3.59,12.59,12.59,0,0,0,.94-5.69V207.29ZM242.62,211a8.58,8.58,0,0,0-1.91-2.5,7.31,7.31,0,0,0-5-1.69c-4.68,0-7.3,3.22-7.3,6.59,0,3.74,3,5.46,5.09,6.32l2.4,1c1.64.67,3.59,1.72,3.59,4.26a4,4,0,0,1-4.12,4.19,3.93,3.93,0,0,1-3.25-1.49,5.4,5.4,0,0,1-1.05-3.18l-3.78.82a8,8,0,0,0,2.1,4.86,7.27,7.27,0,0,0,5.87,2.51,7.68,7.68,0,0,0,8-8c0-2.84-1.27-5.46-5.87-7.33l-2.51-1c-2.43-1-2.69-2.28-2.69-3,0-1.61,1.2-3,3.52-3a4,4,0,0,1,2.69.9,3.89,3.89,0,0,1,1.12,1.57Zm22.83-2.39a11.9,11.9,0,0,0-6.66-1.8,12.38,12.38,0,0,0-9,3.26,13.06,13.06,0,0,0-4,9.76,12.26,12.26,0,0,0,4,9.43,12.52,12.52,0,0,0,8.83,3.44,13.6,13.6,0,0,0,6.85-1.87v-4.53a9.89,9.89,0,0,1-6.74,2.88,9,9,0,0,1-9.12-9.35c0-5.5,3.66-9.5,9.09-9.5a9.72,9.72,0,0,1,6.77,2.77ZM276,216.08a8.33,8.33,0,1,1-8.42,8.31A8.13,8.13,0,0,1,276,216.08Zm0,13.36c2.88,0,4.67-2,4.67-5,0-3.6-2.35-5.05-4.67-5.05s-4.68,1.45-4.68,5.05C271.29,227.46,273.09,229.44,276,229.44Zm11.08,2.8h3.67v-7.55c0-5.09,1.68-5.31,3.32-5.31,1.39,0,2.89.11,2.89,4.11v8.75h3.66v-9.65c0-2.43-.37-3.51-1-4.37a5.26,5.26,0,0,0-4.64-2.14,5.44,5.44,0,0,0-4.26,1.87V216.5h-3.67Zm25.07-12.38V216.5h-4v-5.95a2.57,2.57,0,0,1,.6-1.87,2.08,2.08,0,0,1,1.6-.6,3.15,3.15,0,0,1,1.76.56V205a5.78,5.78,0,0,0-2.35-.45A5,5,0,0,0,306,206.1a7,7,0,0,0-1.53,4.93v5.47h-1.57v3.36h1.57v12.38h3.67V219.86Z"/><path id="COLOMBIA" class="cls-7" d="M221.72,244.23a4.43,4.43,0,0,0-2.77-.92,4.84,4.84,0,1,0,0,9.68,4.85,4.85,0,0,0,2.82-.92v-1.29a4.38,4.38,0,0,1-1.08.79,3.92,3.92,0,0,1-1.74.43,3.86,3.86,0,0,1,0-7.71,4.07,4.07,0,0,1,1.62.36,5.09,5.09,0,0,1,1.22.87Zm11,8.76a4.84,4.84,0,1,1,4.87-4.84A4.79,4.79,0,0,1,232.68,253Zm0-8.7a3.86,3.86,0,1,0,3.8,3.86A3.82,3.82,0,0,0,232.68,244.29Zm11.47-.83v9.36h3.62v-1h-2.58v-8.38Zm13.6,9.53a4.84,4.84,0,1,1,4.87-4.84A4.78,4.78,0,0,1,257.75,253Zm0-8.7a3.86,3.86,0,1,0,3.81,3.86A3.82,3.82,0,0,0,257.75,244.29ZM270,252.82l.92-6.51,3.15,6.9,3.18-6.9.88,6.51h1.07l-1.46-9.89-3.66,7.91-3.59-7.9-1.56,9.88ZM286,243.46h1.68a3.47,3.47,0,0,1,2.15.59,2.34,2.34,0,0,1,.84,1.94,2.1,2.1,0,0,1-.93,1.83,2.35,2.35,0,0,1,1.78,2.36,2.59,2.59,0,0,1-.95,2,3.42,3.42,0,0,1-2.25.62H286Zm1,1v3.13h.79c.55,0,1.84-.11,1.84-1.56s-1.52-1.57-1.81-1.57Zm0,4.06v3.34h1.2a2.6,2.6,0,0,0,1.64-.4,1.58,1.58,0,0,0,.61-1.29,1.5,1.5,0,0,0-.8-1.37,3.21,3.21,0,0,0-1.58-.28Zm11.09-5v9.36h1v-9.36Zm14.41,9.36-1.1-2.64h-4l-1.12,2.64h-1.15l4.3-9.81,4.2,9.81Zm-4.67-3.62h3.17l-1.58-3.75Z"/></g></g></g></g></g></g></svg>