<svg xmlns="http://www.w3.org/2000/svg" viewBox="0 0 45.17 45.17"><defs><style>.cls-1{fill:#fff;}</style></defs><title>Asset 19</title><g id="Layer_2" data-name="Layer 2"><g id="Layer_1-2" data-name="Layer 1"><path class="cls-1" d="M22.59,0A22.59,22.59,0,1,0,45.17,22.59,22.61,22.61,0,0,0,22.59,0ZM32.66,17.42c0,.22,0,.45,0,.67A14.79,14.79,0,0,1,9.92,30.55a10.08,10.08,0,0,0,1.24.07,10.45,10.45,0,0,0,6.45-2.22,5.21,5.21,0,0,1-4.85-3.62,5.15,5.15,0,0,0,1,.1,5.09,5.09,0,0,0,1.37-.18,5.2,5.2,0,0,1-4.16-5.1v-.07a5.07,5.07,0,0,0,2.35.65,5.21,5.21,0,0,1-1.61-6.94A14.77,14.77,0,0,0,22.4,18.68a5.2,5.2,0,0,1,8.86-4.75,10.31,10.31,0,0,0,3.3-1.26,5.21,5.21,0,0,1-2.29,2.88,10.51,10.51,0,0,0,3-.82A10.35,10.35,0,0,1,32.66,17.42Z"/></g></g></svg>