<svg xmlns="http://www.w3.org/2000/svg" viewBox="0 0 51.52 35.42"><defs><style>.cls-1{fill:#fff;}</style></defs><title>Asset 17</title><g id="Layer_2" data-name="Layer 2"><g id="Layer_1-2" data-name="Layer 1"><path class="cls-1" d="M49.33,3.41C47.93.93,46.41.47,43.33.3S32.48,0,25.76,0,11.27.09,8.19.29s-4.6.63-6,3.12S0,10.17,0,17.7H0C0,25.22.74,29.53,2.18,32s2.93,2.93,6,3.14,10.84.29,17.57.29,14.48-.11,17.57-.29,4.6-.66,6-3.14,2.19-6.77,2.19-14.26v0h0C51.52,10.17,50.78,5.9,49.33,3.41Zm-30,24V8.05l16.1,9.66Z"/></g></g></svg>